# xmcd
#
# Track frame offsets: 
#        150
#        41169
#        71740
#        107906
#        146616
#        184216
#        225325
#        266802
#        309556
#
# Disc length: 4695 seconds
#
# Revision: 0
# Processed by: cddbd v1.5.2PL0 Copyright (c) Steve Scherf et al.
# Submitted via: ExactAudioCopy v0.95b4
#
DISCID=84125509
DTITLE=Liquid Space - Center Of Soul
DYEAR=2004
DGENRE=Psychedelic
TTITLE0=Another Life
TTITLE1=Real Eden
TTITLE2=Learn From Leary
TTITLE3=Summer Session
TTITLE4=Schwarzlichtgewitter
TTITLE5=In Wonderland
TTITLE6=Lunatic Asylum
TTITLE7=Scary Inclusive
TTITLE8=Rendered Dreams
EXTD=
EXTT0=
EXTT1=
EXTT2=
EXTT3=
EXTT4=
EXTT5=
EXTT6=
EXTT7=
EXTT8=
PLAYORDER=
